<?xml version="1.0" encoding="UTF-8"?>
<svg width="337px" height="147px" viewBox="0 0 337 147" version="1.1" xmlns="http://www.w3.org/2000/svg" xmlns:xlink="http://www.w3.org/1999/xlink">
    <!-- Generator: Sketch 44.1 (41455) - http://www.bohemiancoding.com/sketch -->
    <title>new channel</title>
    <desc>Created with Sketch.</desc>
    <defs></defs>
    <g id="Page-1" stroke="none" stroke-width="1" fill="none" fill-rule="evenodd">
        <g id="New-Channel-icon" transform="translate(-5.000000, -17.000000)" fill-rule="nonzero">
            <g id="new-channel" transform="translate(5.000000, 17.000000)">
                <g id="Layer-1">
                    <path d="M223.963799,102.682939 C221.39319,102.729746 219.036282,103.707722 218.968308,106.503883 C218.967593,108.722753 220.260768,109.812602 222.075792,109.669856 C223.81688,109.436483 225.144638,108.385474 225.729691,106.990879 C225.946015,106.474006 225.978929,104.539964 225.965811,103.713366 C225.962472,103.537423 225.712519,103.20446 225.603045,103.14039 C225.056868,102.820041 224.652602,102.721115 223.96356,102.682275 L223.963799,102.682939 Z M213.11595,90.8519542 C214.59485,89.1690149 217.527123,86.5494507 222.200331,86.6875189 C228.367405,86.8505886 231.625388,90.5273074 231.928797,99.3226247 C232.053799,102.949714 231.846636,113.066754 231.797339,115.587431 C231.790003,115.949021 231.693757,116.199036 231.310534,116.208365 C230.294964,116.260234 227.948677,116.23971 226.870605,116.221799 C226.326581,116.188215 226.263493,115.84491 226.25645,115.485559 C226.251756,115.25047 226.23591,114.553413 226.224466,113.985094 C226.218304,113.683583 225.995589,113.692166 225.938663,113.769409 C224.49204,115.733709 222.122865,116.682275 219.603452,116.682275 C215.774156,116.682275 211.956598,113.817546 211.968335,108.144436 C211.980072,102.334377 215.219569,99.4685292 218.77832,98.7927413 C221.057118,98.3613715 223.625827,98.7449772 225.570992,99.7278735 C225.695407,99.7913102 225.94952,99.6995135 225.951574,99.475246 C225.959497,98.7349019 225.931327,97.3239942 225.819529,96.6552964 C225.534019,94.9514602 224.416334,93.5804803 222.068286,93.2110546 C221.584709,93.1353037 221.097905,93.1103021 220.610513,93.1595589 C218.743988,93.3461376 216.497761,95.1969977 215.56758,95.8899508 C215.348679,96.0526474 215.00595,95.9336102 214.895032,95.7518826 C214.352182,94.8600367 212.98772,92.2516672 212.880324,91.8348505 C212.772927,91.4191533 212.924338,91.0691318 213.115363,90.8504616 L213.11595,90.8519542 L213.11595,90.8519542 Z M217.233991,52.6721164 C217.842503,52.6858015 222.45943,52.6822925 224.505067,52.680538 C225.193852,52.6896614 225.551709,52.3363039 225.574496,52.0243528 C226.008999,46.0849991 225.823079,17.8072754 225.548601,13.3420576 C225.525815,12.9560663 225.281892,12.8111441 224.892962,12.776054 C223.137338,12.6167449 218.148054,12.6539404 216.548832,12.9374686 C216.23603,12.9925601 216.051664,13.1536237 216.041824,13.3606554 C215.650305,24.8702146 215.914425,51.405363 215.997286,51.9078536 C216.07963,52.4110459 216.468042,52.6545713 217.235027,52.6721164 L217.233991,52.6721164 L217.233991,52.6721164 Z M188.233991,52.6708465 C188.842503,52.6862423 193.45943,52.6822947 195.505067,52.6803209 C196.193852,52.6905847 196.551709,52.2930575 196.574496,51.9421125 C197.008999,45.2603396 196.823079,13.4479004 196.548601,8.42453049 C196.525815,7.99029026 196.281892,7.8272528 195.892962,7.78777641 C194.137338,7.60855363 189.148054,7.65039859 187.548832,7.96936778 C187.23603,8.0313457 187.051664,8.21254231 187.041824,8.44545298 C186.650305,21.3937071 186.914425,51.2457491 186.997286,51.8110509 C187.07963,52.3771422 187.468042,52.6511084 188.235027,52.6708465 L188.233991,52.6708465 L188.233991,52.6708465 Z M202.233991,52.6695767 C202.842503,52.6866832 207.45943,52.6822969 209.505067,52.6801038 C210.193852,52.6915081 210.551709,52.2498112 210.574496,51.8598722 C211.008999,44.4356802 210.823079,9.08852548 210.548601,3.50700334 C210.525815,3.0245142 210.281892,2.84336145 209.892962,2.79949881 C208.137338,2.60036238 203.148054,2.64685679 201.548832,3.00126699 C201.23603,3.07013135 201.051664,3.27146091 201.041824,3.53025055 C200.650305,17.9171996 200.914425,51.0861351 200.997286,51.7142482 C201.07963,52.3432386 201.468042,52.6476454 202.235027,52.6695767 L202.233991,52.6695767 L202.233991,52.6695767 Z M202.774916,47.6474034 C203.347915,47.4421083 207.65693,45.7842739 209.566069,45.0495449 C210.212374,44.8112242 210.41983,44.353092 210.32931,44.0536944 C208.60648,38.3531179 198.299079,12.0202162 196.442641,7.94994048 C196.283041,7.59775262 196.003384,7.54987023 195.627711,7.65649086 C193.931604,8.13692204 189.287036,9.95964664 187.89564,10.7974531 C187.623358,10.9609834 187.508957,11.1774202 187.573965,11.3742272 C191.333107,22.2596345 201.089031,46.9376774 201.346465,47.3770979 C201.603668,47.8173592 202.053553,47.9055152 202.775883,47.6470323 L202.774916,47.6474034 L202.774916,47.6474034 Z M237.13568,117.096565 C237.642774,117.104776 241.490212,117.102671 243.19491,117.101618 C243.768897,117.107092 244.067111,116.895078 244.086101,116.707907 C244.448187,113.144295 244.293254,96.1776607 244.064522,93.4985301 C244.045533,93.2669353 243.842264,93.179982 243.518156,93.1589279 C242.055136,93.0633424 237.897399,93.0856597 236.564714,93.2557766 C236.304046,93.2888315 236.150408,93.3854697 236.142208,93.5096887 C235.815941,100.415424 236.036042,116.336513 236.105093,116.638008 C236.173712,116.939923 236.497389,117.086038 237.136543,117.096565 L237.13568,117.096565 L237.13568,117.096565 Z M250.802346,116.675057 C251.30944,116.684781 255.156879,116.682287 256.861577,116.681041 C257.435564,116.687523 257.733778,116.436447 257.752767,116.214792 C258.114854,111.994615 257.95992,91.9020237 257.731189,88.7292863 C257.7122,88.4550221 257.508931,88.3520484 257.184822,88.3271153 C255.721803,88.213919 251.564066,88.2403481 250.231381,88.4418076 C249.970713,88.4809525 249.817074,88.5953955 249.808874,88.7425008 C249.482608,96.9205588 249.702708,115.774972 249.771759,116.132014 C249.840379,116.489555 250.164056,116.66259 250.80321,116.675057 L250.802346,116.675057 L250.802346,116.675057 Z M250.524155,114.478394 C250.923209,114.165405 253.911957,111.74256 255.236119,110.668972 C255.685503,110.31184 255.788981,109.965758 255.690491,109.81396 C253.815744,106.923479 243.429783,94.3440764 241.631034,92.4862646 C241.476152,92.3251748 241.265572,92.3881276 241.000953,92.5763647 C239.80614,93.4256543 236.588475,96.0588776 235.655712,97.0246695 C235.473135,97.2134105 235.412205,97.3823033 235.480991,97.4802759 C239.405706,102.845338 249.209711,114.602533 249.445791,114.784344 C249.681791,114.966742 250.021741,114.872218 250.524826,114.477851 L250.524155,114.478394 L250.524155,114.478394 Z M262.368496,117.254386 C262.87559,117.262597 266.723029,117.260492 268.427727,117.259439 C269.001714,117.264913 269.299928,117.052898 269.318917,116.865728 C269.681003,113.302116 269.52607,96.3354813 269.297338,93.6563507 C269.278349,93.4247559 269.07508,93.3378026 268.750972,93.3167485 C267.287953,93.221163 263.130216,93.2434803 261.79753,93.4135972 C261.536863,93.4466521 261.383224,93.5432903 261.375024,93.6675093 C261.048758,100.573245 261.268858,116.494334 261.337909,116.795828 C261.406529,117.097744 261.730205,117.243859 262.369359,117.254386 L262.368496,117.254386 L262.368496,117.254386 Z M276.368496,116.675057 C276.87559,116.684781 280.723029,116.682287 282.427727,116.681041 C283.001714,116.687523 283.299928,116.436447 283.318917,116.214792 C283.681003,111.994615 283.52607,91.9020237 283.297338,88.7292863 C283.278349,88.4550221 283.07508,88.3520484 282.750972,88.3271153 C281.287953,88.213919 277.130216,88.2403481 275.79753,88.4418076 C275.536863,88.4809525 275.383224,88.5953955 275.375024,88.7425008 C275.048758,96.9205588 275.268858,115.774972 275.337909,116.132014 C275.406529,116.489555 275.730205,116.66259 276.369359,116.675057 L276.368496,116.675057 L276.368496,116.675057 Z M275.657396,115.01534 C276.05645,114.702351 279.045198,112.279506 280.36936,111.205918 C280.818744,110.848787 280.922222,110.502704 280.823732,110.350906 C278.948985,107.460425 268.563024,94.8810226 266.764275,93.0232107 C266.609393,92.862121 266.398812,92.9250737 266.134194,93.1133109 C264.939381,93.9626004 261.721716,96.5958238 260.788953,97.5616156 C260.606376,97.7503567 260.545446,97.9192494 260.614232,98.0172221 C264.538947,103.382284 274.342952,115.139479 274.579032,115.32129 C274.815031,115.503688 275.154982,115.409164 275.658067,115.014797 L275.657396,115.01534 L275.657396,115.01534 Z M247.365517,47.214382 C247.872131,47.5515403 251.745167,50.0646272 253.461261,51.1780256 C254.03644,51.5569902 254.43279,51.6037179 254.536851,51.4853164 C256.518659,49.2313835 264.063309,37.2722769 265.049078,35.2503622 C265.135081,35.0760918 264.969975,34.8824709 264.653346,34.6559299 C263.22434,33.632945 259.029845,30.9311834 257.611414,30.1790778 C257.334074,30.0318158 257.135591,29.9989423 257.07096,30.0803989 C253.608326,34.6935264 246.603797,45.9645006 246.536453,46.2203421 C246.468482,46.4761958 246.727916,46.7898591 247.366385,47.2149461 L247.365517,47.214382 L247.365517,47.214382 Z M243.067342,23.3680823 C242.530149,23.654118 238.49337,25.8947501 236.704853,26.8876458 C236.099111,27.2155904 235.914606,27.6208731 236.008103,27.8365494 C237.78767,31.9432078 248.232263,50.4022628 250.095913,53.1982188 C250.256192,53.4403683 250.522226,53.417176 250.875151,53.2516368 C252.46858,52.504995 256.818781,50.061743 258.1144,49.10044 C258.367951,48.9126529 258.470637,48.7176182 258.403965,48.5770423 C254.561437,40.8373644 244.682061,23.5592897 244.426879,23.2698455 C244.171896,22.97969 243.743635,23.0082518 243.066436,23.3685844 L243.067342,23.3680823 L243.067342,23.3680823 Z M279.1444,26.9884499 C278.622545,26.6753049 274.622854,24.3691208 272.850622,23.3474416 C272.257538,22.9971236 271.815116,23.0477075 271.6784,23.2389323 C269.074851,26.8794037 258.631716,45.339284 257.194964,48.376767 C257.069952,48.6388691 257.226849,48.8549603 257.550514,49.0722171 C259.011187,50.053503 263.345982,52.5239859 264.837273,53.1394402 C265.128826,53.2600579 265.348891,53.2476272 265.435049,53.118076 C270.0902,45.8381578 279.812145,28.4710132 279.928819,28.1032054 C280.046205,27.7352007 279.801152,27.3828202 279.143503,26.987932 L279.1444,26.9884499 L279.1444,26.9884499 Z M270.160259,46.3276872 C270.638067,45.9327138 270.771221,45.5903466 270.686672,45.4576799 C269.077365,42.9314112 259.860899,32.207971 258.236569,30.6564813 C258.096804,30.5218205 257.882057,30.6074236 257.602635,30.8189828 C256.341037,31.7736074 252.913179,34.6741992 251.901736,35.7079612 C251.703784,35.9100208 251.628439,36.0783693 251.688194,36.1633594 C255.117366,40.7982739 263.827693,50.8090294 264.046319,50.9535585 C264.264812,51.0986559 264.610867,50.9672317 265.145296,50.5302444 C265.144581,50.5308436 268.750479,47.5117787 270.160259,46.3276872 Z M236.598077,51.2814286 C236.605183,50.6729161 236.603361,46.0559897 236.60245,44.010352 C236.607188,43.3215677 236.423705,42.9637106 236.261723,42.9409237 C233.177682,42.5064199 218.494328,42.6923399 216.17574,42.9668179 C215.975312,42.9896047 215.900061,43.2335276 215.88184,43.6224577 C215.799118,45.3780809 215.818432,50.3673652 215.965655,51.9665877 C215.994262,52.279389 216.077895,52.4637553 216.185397,52.4735951 C222.161795,52.8651146 235.940309,52.6009943 236.20123,52.518133 C236.462515,52.4357896 236.588967,52.0473774 236.598077,51.2803928 L236.598077,51.2814286 L236.598077,51.2814286 Z M236.598077,21.2814286 C236.605183,20.6729161 236.603361,16.0559897 236.60245,14.010352 C236.607188,13.3215677 236.423705,12.9637106 236.261723,12.9409237 C233.177682,12.5064199 218.494328,12.6923399 216.17574,12.9668179 C215.975312,12.9896047 215.900061,13.2335276 215.88184,13.6224577 C215.799118,15.3780809 215.818432,20.3673652 215.965655,21.9665877 C215.994262,22.279389 216.077895,22.4637553 216.185397,22.4735951 C222.161795,22.8651146 235.940309,22.6009943 236.20123,22.518133 C236.462515,22.4357896 236.588967,22.0473774 236.598077,21.2803928 L236.598077,21.2814286 L236.598077,21.2814286 Z M217.233991,52.6721164 C217.842503,52.6858015 222.45943,52.6822925 224.505067,52.680538 C225.193852,52.6896614 225.551709,52.3363039 225.574496,52.0243528 C226.008999,46.0849991 225.823079,17.8072754 225.548601,13.3420576 C225.525815,12.9560663 225.281892,12.8111441 224.892962,12.776054 C223.137338,12.6167449 218.148054,12.6539404 216.548832,12.9374686 C216.23603,12.9925601 216.051664,13.1536237 216.041824,13.3606554 C215.650305,24.8702146 215.914425,51.405363 215.997286,51.9078536 C216.07963,52.4110459 216.468042,52.6545713 217.235027,52.6721164 L217.233991,52.6721164 L217.233991,52.6721164 Z M236.598077,51.2814286 C236.605183,50.6729161 236.603361,46.0559897 236.60245,44.010352 C236.607188,43.3215677 236.423705,42.9637106 236.261723,42.9409237 C233.177682,42.5064199 218.494328,42.6923399 216.17574,42.9668179 C215.975312,42.9896047 215.900061,43.2335276 215.88184,43.6224577 C215.799118,45.3780809 215.818432,50.3673652 215.965655,51.9665877 C215.994262,52.279389 216.077895,52.4637553 216.185397,52.4735951 C222.161795,52.8651146 235.940309,52.6009943 236.20123,52.518133 C236.462515,52.4357896 236.588967,52.0473774 236.598077,51.2803928 L236.598077,51.2814286 L236.598077,51.2814286 Z M308.612841,115.176494 C308.619684,114.689684 308.617929,110.996143 308.617052,109.359633 C308.621613,108.808605 308.444935,108.52232 308.288959,108.50409 C305.319282,108.156487 291.18042,108.305223 288.947812,108.524805 C288.754816,108.543035 288.682355,108.738173 288.66481,109.049317 C288.585155,110.453816 288.603753,114.445243 288.745517,115.724621 C288.773063,115.974862 288.853595,116.122355 288.95711,116.130227 C294.71189,116.443443 307.979464,116.232147 308.23071,116.165858 C308.482306,116.099983 308.604068,115.789253 308.612841,115.175665 L308.612841,115.176494 L308.612841,115.176494 Z M308.612841,89.176494 C308.619684,88.689684 308.617929,84.9961429 308.617052,83.3596328 C308.621613,82.8086053 308.444935,82.5223196 308.288959,82.5040902 C305.319282,82.1564871 291.18042,82.3052231 288.947812,82.5248055 C288.754816,82.543035 288.682355,82.7381732 288.66481,83.0493173 C288.585155,84.4538159 288.603753,88.4452433 288.745517,89.7246213 C288.773063,89.9748624 288.853595,90.1223554 288.95711,90.1302272 C294.71189,90.4434428 307.979464,90.2321466 308.23071,90.1658576 C308.482306,90.0999829 308.604068,89.7892531 308.612841,89.1756654 L308.612841,89.176494 L308.612841,89.176494 Z M301.615381,102.561598 C301.618802,102.074788 301.617925,98.3812467 301.617486,96.7447366 C301.619767,96.1937091 301.531427,95.9074234 301.45344,95.889194 C299.968601,95.5415909 292.89917,95.6903269 291.782866,95.9099093 C291.686368,95.9281388 291.650138,96.1232771 291.641365,96.4344211 C291.601538,97.8389197 291.610837,101.830347 291.681719,103.109725 C291.695492,103.359966 291.735757,103.507459 291.787515,103.515331 C294.664905,103.828547 301.298692,103.61725 301.424315,103.550961 C301.550113,103.485087 301.610994,103.174357 301.615381,102.560769 L301.615381,102.561598 L301.615381,102.561598 Z M290.321801,114.356931 C290.808611,114.367195 294.502152,114.364563 296.138663,114.363247 C296.68969,114.37009 296.975976,114.105072 296.994205,113.871108 C297.341808,109.416593 297.193072,88.2083001 296.97349,84.8593868 C296.95526,84.5698933 296.760122,84.4612017 296.448978,84.4348841 C295.04448,84.3154022 291.053052,84.3432989 289.773674,84.555945 C289.523433,84.5972636 289.37594,84.7180614 289.368068,84.8733351 C289.054853,93.5055046 289.266149,113.406866 289.332438,113.783734 C289.398312,114.161128 289.709042,114.343772 290.32263,114.356931 L290.321801,114.356931 L290.321801,114.356931 Z M308.612841,115.176494 C308.619684,114.689684 308.617929,110.996143 308.617052,109.359633 C308.621613,108.808605 308.444935,108.52232 308.288959,108.50409 C305.319282,108.156487 291.18042,108.305223 288.947812,108.524805 C288.754816,108.543035 288.682355,108.738173 288.66481,109.049317 C288.585155,110.453816 288.603753,114.445243 288.745517,115.724621 C288.773063,115.974862 288.853595,116.122355 288.95711,116.130227 C294.71189,116.443443 307.979464,116.232147 308.23071,116.165858 C308.482306,116.099983 308.604068,115.789253 308.612841,115.175665 L308.612841,115.176494 L308.612841,115.176494 Z M236.598077,21.2814286 C236.605183,20.6729161 236.603361,16.0559897 236.60245,14.010352 C236.607188,13.3215677 236.423705,12.9637106 236.261723,12.9409237 C233.177682,12.5064199 218.494328,12.6923399 216.17574,12.9668179 C215.975312,12.9896047 215.900061,13.2335276 215.88184,13.6224577 C215.799118,15.3780809 215.818432,20.3673652 215.965655,21.9665877 C215.994262,22.279389 216.077895,22.4637553 216.185397,22.4735951 C222.161795,22.8651146 235.940309,22.6009943 236.20123,22.518133 C236.462515,22.4357896 236.588967,22.0473774 236.598077,21.2803928 L236.598077,21.2814286 L236.598077,21.2814286 Z M161.988174,115.661675 C162.688448,115.678616 168.001594,115.674272 170.355707,115.6721 C171.148358,115.683394 171.560179,115.245987 171.586402,114.859835 C172.086428,107.507748 171.872472,72.5038928 171.556603,66.9765796 C171.53038,66.4987765 171.249675,66.3193832 170.802095,66.2759465 C168.781729,66.0787442 163.040075,66.124787 161.199695,66.4757551 C160.839724,66.5439506 160.627556,66.7433248 160.616232,66.9996011 C160.165673,81.2468209 160.469622,114.093613 160.564978,114.715625 C160.659739,115.338507 161.106722,115.639957 161.989366,115.661675 L161.988174,115.661675 L161.988174,115.661675 Z M182.304196,113.61192 C182.31184,112.911646 182.30988,107.598501 182.3089,105.244387 C182.313996,104.451736 182.116632,104.039915 181.942395,104.013692 C178.625034,103.513666 162.830821,103.727623 160.336822,104.043491 C160.121231,104.069714 160.040286,104.35042 160.020687,104.797999 C159.931707,106.818365 159.952482,112.560019 160.110844,114.400399 C160.141614,114.76037 160.231575,114.972539 160.34721,114.983862 C166.775748,115.434422 181.596665,115.130473 181.877326,115.035116 C182.158378,114.940356 182.294397,114.493372 182.304196,113.610728 L182.304196,113.61192 L182.304196,113.61192 Z M315.405264,112.674656 C315.892074,112.68492 319.585615,112.682288 321.222125,112.680972 C321.773153,112.687815 322.059438,112.422797 322.077668,112.188833 C322.425271,107.734318 322.276535,86.5260252 322.056952,83.177112 C322.038723,82.8876185 321.843585,82.7789268 321.532441,82.7526092 C320.127942,82.6331274 316.136515,82.661024 314.857137,82.8736701 C314.606896,82.9149888 314.459403,83.0357865 314.451531,83.1910603 C314.138315,91.8232297 314.349611,111.724591 314.4159,112.101459 C314.481775,112.478853 314.792505,112.661497 315.406093,112.674656 L315.405264,112.674656 L315.405264,112.674656 Z M188.088985,114.674656 C188.575795,114.68492 192.269336,114.682288 193.905846,114.680972 C194.456874,114.687815 194.743159,114.422797 194.761389,114.188833 C195.108992,109.734318 194.960256,88.5260252 194.740673,85.177112 C194.722444,84.8876185 194.527306,84.7789268 194.216162,84.7526092 C192.811663,84.6331274 188.820236,84.661024 187.540858,84.8736701 C187.290617,84.9149888 187.143124,85.0357865 187.135252,85.1910603 C186.822036,93.8232297 187.033332,113.724591 187.099621,114.101459 C187.165496,114.478853 187.476226,114.661497 188.089814,114.674656 L188.088985,114.674656 L188.088985,114.674656 Z M202.953822,114.674656 C203.440631,114.68492 207.134173,114.682288 208.770683,114.680972 C209.32171,114.687815 209.607996,114.422797 209.626225,114.188833 C209.973828,109.734318 209.825092,88.5260252 209.60551,85.177112 C209.587281,84.8876185 209.392142,84.7789268 209.080998,84.7526092 C207.6765,84.6331274 203.685072,84.661024 202.405694,84.8736701 C202.155453,84.9149888 202.00796,85.0357865 202.000088,85.1910603 C201.686873,93.8232297 201.898169,113.724591 201.964458,114.101459 C202.030333,114.478853 202.341062,114.661497 202.95465,114.674656 L202.953822,114.674656 L202.953822,114.674656 Z M336.898182,115.633308 C336.905826,115.146498 336.903866,111.452957 336.902886,109.816447 C336.907982,109.265419 336.710618,108.979134 336.536381,108.960904 C333.21902,108.613301 317.424807,108.762037 314.930808,108.98162 C314.715217,108.999849 314.634272,109.194987 314.614673,109.506131 C314.525693,110.91063 314.546468,114.902057 314.704829,116.181435 C314.7356,116.431676 314.825561,116.57917 314.941196,116.587041 C321.369734,116.900257 336.190651,116.688961 336.471311,116.622672 C336.752364,116.556797 336.888382,116.246067 336.898182,115.63248 L336.898182,115.633308 L336.898182,115.633308 Z M205.464498,102.890817 C205.46963,102.404007 205.468315,98.7104656 205.467657,97.0739555 C205.471078,96.522928 205.338569,96.2366423 205.221587,96.2184129 C202.994329,95.8708098 192.390183,96.0195458 190.715726,96.2391282 C190.57098,96.2573577 190.516634,96.452496 190.503475,96.76364 C190.443734,98.1681386 190.457682,102.159566 190.564006,103.438944 C190.584665,103.689185 190.645064,103.836678 190.722701,103.84455 C195.038785,104.157766 204.989466,103.946469 205.1779,103.88018 C205.366597,103.814306 205.457919,103.503576 205.464498,102.889988 L205.464498,102.890817 L205.464498,102.890817 Z M182.304196,76.4761285 C182.31184,75.7758541 182.30988,70.4627089 182.3089,68.1085951 C182.313996,67.3159442 182.116632,66.9041233 181.942395,66.8779002 C178.625034,66.3778746 162.830821,66.5918307 160.336822,66.9076991 C160.121231,66.9339222 160.040286,67.2146279 160.020687,67.6622075 C159.931707,69.6825735 159.952482,75.424227 160.110844,77.2646076 C160.141614,77.6245784 160.231575,77.8367466 160.34721,77.8480702 C166.775748,78.2986297 181.596665,77.9946808 181.877326,77.8993243 C182.158378,77.8045638 182.294397,77.3575802 182.304196,76.4749365 L182.304196,76.4761285 L182.304196,76.4761285 Z M236.598077,51.2814286 C236.605183,50.6729161 236.603361,46.0559897 236.60245,44.010352 C236.607188,43.3215677 236.423705,42.9637106 236.261723,42.9409237 C233.177682,42.5064199 218.494328,42.6923399 216.17574,42.9668179 C215.975312,42.9896047 215.900061,43.2335276 215.88184,43.6224577 C215.799118,45.3780809 215.818432,50.3673652 215.965655,51.9665877 C215.994262,52.279389 216.077895,52.4637553 216.185397,52.4735951 C222.161795,52.8651146 235.940309,52.6009943 236.20123,52.518133 C236.462515,52.4357896 236.588967,52.0473774 236.598077,51.2803928 L236.598077,51.2814286 L236.598077,51.2814286 Z M230.830605,36.2946111 C230.834026,35.6860986 230.833149,31.0691722 230.83271,29.0235345 C230.834991,28.3347502 230.746652,27.9768931 230.668664,27.9541062 C229.183826,27.5196024 222.114395,27.7055224 220.99809,27.9800004 C220.901592,28.0027872 220.865362,28.2467101 220.856589,28.6356402 C220.816762,30.3912634 220.826061,35.3805477 220.896943,36.9797702 C220.910716,37.2925715 220.950982,37.4769378 221.00274,37.4867776 C223.880129,37.8782971 230.513917,37.6141768 230.639539,37.5313155 C230.765337,37.4489721 230.826219,37.0605599 230.830605,36.2935753 L230.830605,36.2946111 L230.830605,36.2946111 Z" id="Shape" fill="#F4F0F0"></path>
                    <g id="Hash-Logo">
                        <path d="M12.997,77.78 C7.503,77.822 2.849,74.548 1.133,69.438 C1.06934068,69.2450139 1.0099926,69.0506322 0.955,68.855 C-0.915,62.311 2.711,55.465 9.21,53.273 L113.45,18.35 C114.68771,17.9919361 115.968584,17.8048686 117.257,17.794 C122.897,17.75 127.679,21.096 129.437,26.314 L129.593,26.818 C131.543,33.634 126.698,39.718 120.893,41.668 C120.889,41.671 119.833,42.028 17.231,77.059 C15.8672273,77.5239032 14.4377811,77.7673209 12.997,77.78 L12.997,77.78 Z" id="Shape" fill="#2EA7BE"></path>
                        <path d="M30.372,129.045 C24.835,129.085 20.165,125.857 18.469,120.82 C18.404621,120.628389 18.3446055,120.435339 18.289,120.241 C16.393,113.619 20.015,106.701 26.536,104.506 L130.78,69.263 C132.127,68.813 133.518,68.583 134.917,68.57 C140.469,68.528 145.347,71.92 147.068,77.014 L147.228,77.544 C148.235,81.065 147.64,85.022 145.638,88.145 C144.146,90.467 139.44,92.511 139.44,92.511 L34.8,128.29 C33.3728695,128.773134 31.8785792,129.028594 30.372,129.047 L30.372,129.045 L30.372,129.045 Z" id="Shape" fill="#F1679D"></path>
                        <path d="M117.148,129.268 C111.604958,129.32123 106.657781,125.799873 104.893,120.545 L70.103,17.205 L69.929,16.625 C68.044,10.035 71.669,3.161 78.166,0.971 C79.466,0.534 80.81,0.306 82.163,0.294 C84.173,0.279 86.118,0.732 87.95,1.637 C90.9979467,3.14430489 93.3190236,5.80477948 94.399,9.029 L129.186,112.36 L129.287,112.692 C131.241,119.534 127.624,126.412 121.127,128.602 C119.843664,129.030745 118.501003,129.255477 117.148,129.268 L117.148,129.268 Z" id="Shape" fill="#5EDC2F"></path>
                        <path d="M65.435,146.674 C59.8887611,146.726832 54.9392454,143.202421 53.175,137.944 L18.394,34.608 C17.3055726,31.3882455 17.542685,27.8677652 19.0530391,24.8230446 C20.5633931,21.7783239 23.2229098,19.4594935 26.445,18.378 C27.7302395,17.9483589 29.0749118,17.7229533 30.43,17.71 C35.9739738,17.6552676 40.9225229,21.1770261 42.687,26.433 L77.469,129.773 C78.5579488,132.994311 78.3200577,136.516567 76.8078434,139.562196 C75.2956292,142.607826 72.6334472,144.926374 69.409,146.006 C68.1262581,146.435869 66.7838005,146.660962 65.431,146.673 L65.435,146.673 L65.435,146.674 Z" id="Shape" fill="#3EB890"></path>
                        <polygon id="Shape" fill="#CC2027" points="99.997 105.996 124.255 97.702 116.325 74.152 92.039 82.359 99.997 105.996"></polygon>
                        <polygon id="Shape" fill="#361238" points="48.364 123.65 72.62 115.357 64.63 91.627 40.35 99.837 48.364 123.65"></polygon>
                        <polygon id="Shape" fill="#65863A" points="82.727 54.7 106.987 46.417 99.15 23.142 74.845 31.285"></polygon>
                        <polygon id="Shape" fill="#1A937D" points="31.088 72.33 55.348 64.047 47.415 40.475 23.11 48.617 31.088 72.33"></polygon>
                    </g>
                </g>
            </g>
        </g>
    </g>
</svg>