<?xml version="1.0" encoding="UTF-8"?>
<svg width="370px" height="76px" viewBox="0 0 370 76" version="1.1" xmlns="http://www.w3.org/2000/svg" xmlns:xlink="http://www.w3.org/1999/xlink">
    <!-- Generator: Sketch 44.1 (41455) - http://www.bohemiancoding.com/sketch -->
    <title>new channel</title>
    <desc>Created with Sketch.</desc>
    <defs></defs>
    <g id="Page-1" stroke="none" stroke-width="1" fill="none" fill-rule="evenodd">
        <g id="New-Channel-icon" transform="translate(-22.000000, -48.000000)" fill-rule="nonzero">
            <g id="new-channel" transform="translate(22.000000, 48.000000)">
                <g id="Layer-1">
                    <path d="M256.533162,49.4473692 C253.962553,49.4941766 251.605645,50.4721525 251.537671,53.2683137 C251.536956,55.4871837 252.830131,56.5770326 254.645155,56.4342866 C256.386243,56.2009136 257.714001,55.1499048 258.299054,53.7553099 C258.515378,53.2384367 258.548292,51.3043947 258.535174,50.477796 C258.531835,50.3018533 258.281882,49.96889 258.172408,49.9048203 C257.626231,49.5844718 257.221965,49.4855455 256.532923,49.4467053 L256.533162,49.4473692 Z M245.685313,37.0365631 C247.164213,35.3536237 250.096486,32.7340596 254.769694,32.8721278 C260.936768,33.0351975 264.19475,36.7119163 264.49816,45.5072336 C264.623162,49.1343224 264.415999,59.2513628 264.366702,61.7720403 C264.359366,62.1336297 264.26312,62.3836451 263.879897,62.392974 C262.864327,62.4448429 260.518039,62.4243192 259.439968,62.4064077 C258.895944,62.3728235 258.832856,62.0295188 258.825813,61.6701683 C258.821118,61.4350792 258.805273,60.7380214 258.793829,60.1697029 C258.787667,59.8681918 258.564952,59.8767744 258.508026,59.954018 C257.061403,61.9183179 254.692228,62.8668838 252.172815,62.8668838 C248.343519,62.8668838 244.525961,60.0021553 244.537698,54.329045 C244.549435,48.518986 247.788931,45.6531381 251.347683,44.9773502 C253.62648,44.5459804 256.19519,44.9295861 258.140355,45.9124824 C258.26477,45.9759191 258.518883,45.8841224 258.520937,45.6598549 C258.52886,44.9195108 258.50069,43.5086031 258.388892,42.8399053 C258.103382,41.1360691 256.985697,39.7650892 254.637649,39.3956635 C254.154072,39.3199126 253.667268,39.294911 253.179876,39.3441678 C251.313351,39.5307464 249.067124,41.3816066 248.136943,42.0745597 C247.918042,42.2372562 247.575313,42.1182191 247.464395,41.9364915 C246.921545,41.0446455 245.557083,38.4362761 245.449686,38.0194594 C245.34229,37.6037622 245.493701,37.2537407 245.684726,37.0350705 L245.685313,37.0365631 L245.685313,37.0365631 Z M269.705043,63.8607886 C270.212136,63.8689997 274.059575,63.8668943 275.764273,63.8658416 C276.33826,63.8713157 276.636474,63.6593012 276.655463,63.4721305 C277.01755,59.9085183 276.862617,42.941884 276.633885,40.2627534 C276.614896,40.0311586 276.411627,39.9442053 276.087518,39.9231512 C274.624499,39.8275658 270.466762,39.8498831 269.134077,40.02 C268.873409,40.0530549 268.71977,40.1496931 268.711571,40.2739121 C268.385304,47.1796476 268.605405,63.1007367 268.674456,63.402231 C268.743075,63.7041464 269.066752,63.8502616 269.705906,63.8607886 L269.705043,63.8607886 L269.705043,63.8607886 Z M283.705043,63.2814595 C284.212136,63.2911834 288.059575,63.2886901 289.764273,63.2874435 C290.33826,63.2939261 290.636474,63.0428497 290.655463,62.8211944 C291.01755,58.6010173 290.862617,38.5084264 290.633885,35.335689 C290.614896,35.0614249 290.411627,34.9584511 290.087518,34.933518 C288.624499,34.8203218 284.466762,34.8467508 283.134077,35.0482103 C282.873409,35.0873553 282.71977,35.2017982 282.711571,35.3489035 C282.385304,43.5269615 282.605405,62.3813745 282.674456,62.7384165 C282.743075,63.0959572 283.066752,63.268993 283.705906,63.2814595 L283.705043,63.2814595 L283.705043,63.2814595 Z M283.42458,60.8573124 C283.823634,60.544323 286.812381,58.1214783 288.136543,57.0478905 C288.585927,56.6907589 288.689405,56.3446764 288.590916,56.1928784 C286.716169,53.3023975 276.330208,40.7229949 274.531459,38.8651831 C274.376576,38.7040933 274.165996,38.7670461 273.901378,38.9552832 C272.706565,39.8045728 269.488899,42.4377961 268.556137,43.403588 C268.373559,43.592329 268.31263,43.7612218 268.381415,43.8591944 C272.306131,49.2242565 282.110136,60.9814515 282.346216,61.1632628 C282.582215,61.3456603 282.922165,61.2511363 283.425251,60.8567692 L283.42458,60.8573124 L283.42458,60.8573124 Z M295.705043,63.8607886 C296.212136,63.8689997 300.059575,63.8668943 301.764273,63.8658416 C302.33826,63.8713157 302.636474,63.6593012 302.655463,63.4721305 C303.01755,59.9085183 302.862617,42.941884 302.633885,40.2627534 C302.614896,40.0311586 302.411627,39.9442053 302.087518,39.9231512 C300.624499,39.8275658 296.466762,39.8498831 295.134077,40.02 C294.873409,40.0530549 294.71977,40.1496931 294.711571,40.2739121 C294.385304,47.1796476 294.605405,63.1007367 294.674456,63.402231 C294.743075,63.7041464 295.066752,63.8502616 295.705906,63.8607886 L295.705043,63.8607886 L295.705043,63.8607886 Z M309.705043,63.2814595 C310.212136,63.2911834 314.059575,63.2886901 315.764273,63.2874435 C316.33826,63.2939261 316.636474,63.0428497 316.655463,62.8211944 C317.01755,58.6010173 316.862617,38.5084264 316.633885,35.335689 C316.614896,35.0614249 316.411627,34.9584511 316.087518,34.933518 C314.624499,34.8203218 310.466762,34.8467508 309.134077,35.0482103 C308.873409,35.0873553 308.71977,35.2017982 308.711571,35.3489035 C308.385304,43.5269615 308.605405,62.3813745 308.674456,62.7384165 C308.743075,63.0959572 309.066752,63.268993 309.705906,63.2814595 L309.705043,63.2814595 L309.705043,63.2814595 Z M308.42458,61.8573124 C308.823634,61.544323 311.812381,59.1214783 313.136543,58.0478905 C313.585927,57.6907589 313.689405,57.3446764 313.590916,57.1928784 C311.716169,54.3023975 301.330208,41.7229949 299.531459,39.8651831 C299.376576,39.7040933 299.165996,39.7670461 298.901378,39.9552832 C297.706565,40.8045728 294.488899,43.4377961 293.556137,44.403588 C293.373559,44.592329 293.31263,44.7612218 293.381415,44.8591944 C297.306131,50.2242565 307.110136,61.9814515 307.346216,62.1632628 C307.582215,62.3456603 307.922165,62.2511363 308.425251,61.8567692 L308.42458,61.8573124 L308.42458,61.8573124 Z M341.994921,61.2995014 C342.001763,60.8126915 342.000009,57.1191503 341.999132,55.4826402 C342.003693,54.9316127 341.827015,54.645327 341.671039,54.6270976 C338.701362,54.2794945 324.5625,54.4282305 322.329891,54.6478129 C322.136896,54.6660424 322.064435,54.8611806 322.04689,55.1723247 C321.967235,56.5768233 321.985833,60.5682507 322.127597,61.8476287 C322.155143,62.0978698 322.235674,62.2453628 322.33919,62.2532346 C328.09397,62.5664503 341.361544,62.355154 341.612789,62.288865 C341.864385,62.2229903 341.986148,61.9122605 341.994921,61.2986728 L341.994921,61.2995014 L341.994921,61.2995014 Z M341.994921,35.2995014 C342.001763,34.8126915 342.000009,31.1191503 341.999132,29.4826402 C342.003693,28.9316127 341.827015,28.645327 341.671039,28.6270976 C338.701362,28.2794945 324.5625,28.4282305 322.329891,28.6478129 C322.136896,28.6660424 322.064435,28.8611806 322.04689,29.1723247 C321.967235,30.5768233 321.985833,34.5682507 322.127597,35.8476287 C322.155143,36.0978698 322.235674,36.2453628 322.33919,36.2532346 C328.09397,36.5664503 341.361544,36.355154 341.612789,36.288865 C341.864385,36.2229903 341.986148,35.9122605 341.994921,35.2986728 L341.994921,35.2995014 L341.994921,35.2995014 Z M334.99746,49.2995014 C335.000882,48.8126915 335.000004,45.1191503 334.999566,43.4826402 C335.001847,42.9316127 334.913507,42.645327 334.835519,42.6270976 C333.350681,42.2794945 326.28125,42.4282305 325.164946,42.6478129 C325.068448,42.6660424 325.032217,42.8611806 325.023445,43.1723247 C324.983618,44.5768233 324.992916,48.5682507 325.063798,49.8476287 C325.077571,50.0978698 325.117837,50.2453628 325.169595,50.2532346 C328.046985,50.5664503 334.680772,50.355154 334.806395,50.288865 C334.932193,50.2229903 334.993074,49.9122605 334.99746,49.2986728 L334.99746,49.2995014 L334.99746,49.2995014 Z M323.658348,60.8592649 C324.145158,60.8695287 327.838699,60.866897 329.475209,60.8655811 C330.026237,60.8724237 330.312522,60.6074055 330.330752,60.3734422 C330.678355,55.9189269 330.529619,34.7106341 330.310036,31.3617208 C330.291807,31.0722273 330.096669,30.9635357 329.785525,30.9372181 C328.381026,30.8177363 324.389599,30.8456329 323.110221,31.058279 C322.85998,31.0995976 322.712486,31.2203954 322.704615,31.3756692 C322.391399,40.0078386 322.602695,59.9091999 322.668984,60.2860678 C322.734859,60.663462 323.045589,60.8461061 323.659176,60.8592649 L323.658348,60.8592649 L323.658348,60.8592649 Z M341.994921,61.2995014 C342.001763,60.8126915 342.000009,57.1191503 341.999132,55.4826402 C342.003693,54.9316127 341.827015,54.645327 341.671039,54.6270976 C338.701362,54.2794945 324.5625,54.4282305 322.329891,54.6478129 C322.136896,54.6660424 322.064435,54.8611806 322.04689,55.1723247 C321.967235,56.5768233 321.985833,60.5682507 322.127597,61.8476287 C322.155143,62.0978698 322.235674,62.2453628 322.33919,62.2532346 C328.09397,62.5664503 341.361544,62.355154 341.612789,62.288865 C341.864385,62.2229903 341.986148,61.9122605 341.994921,61.2986728 L341.994921,61.2995014 L341.994921,61.2995014 Z M195.149761,62.3686981 C195.850035,62.3856384 201.16318,62.3812947 203.517294,62.3791229 C204.309945,62.3904164 204.721766,61.9530094 204.747989,61.5668576 C205.248015,54.2147709 205.034058,19.2109155 204.71819,13.6836023 C204.691967,13.2057992 204.411261,13.0264058 203.963682,12.9829692 C201.943316,12.7857668 196.201662,12.8318097 194.361281,13.1827778 C194.001311,13.2509733 193.789142,13.4503475 193.777819,13.7066237 C193.327259,27.9538436 193.631208,60.8006352 193.726565,61.422648 C193.821325,62.0455295 194.268309,62.3469798 195.150953,62.3686981 L195.149761,62.3686981 L195.149761,62.3686981 Z M215.335888,60.3160591 C215.343532,59.6157847 215.341572,54.3026394 215.340592,51.9485257 C215.345688,51.1558748 215.148324,50.7440539 214.974087,50.7178308 C211.656726,50.2178051 195.862513,50.4317613 193.368514,50.7476297 C193.152923,50.7738528 193.071979,51.0545585 193.052379,51.5021381 C192.963399,53.522504 192.984174,59.2641576 193.142536,61.1045382 C193.173306,61.464509 193.263267,61.6766772 193.378902,61.6880008 C199.80744,62.1385603 214.628357,61.8346114 214.909018,61.7392549 C215.19007,61.6444944 215.326089,61.1975108 215.335888,60.3148671 L215.335888,60.3160591 L215.335888,60.3160591 Z M348.658348,58.8592649 C349.145158,58.8695287 352.838699,58.866897 354.475209,58.8655811 C355.026237,58.8724237 355.312522,58.6074055 355.330752,58.3734422 C355.678355,53.9189269 355.529619,32.7106341 355.310036,29.3617208 C355.291807,29.0722273 355.096669,28.9635357 354.785525,28.9372181 C353.381026,28.8177363 349.389599,28.8456329 348.110221,29.058279 C347.85998,29.0995976 347.712486,29.2203954 347.704615,29.3756692 C347.391399,38.0078386 347.602695,57.9091999 347.668984,58.2860678 C347.734859,58.663462 348.045589,58.8461061 348.659176,58.8592649 L348.658348,58.8592649 L348.658348,58.8592649 Z M220.658348,60.8592649 C221.145158,60.8695287 224.838699,60.866897 226.475209,60.8655811 C227.026237,60.8724237 227.312522,60.6074055 227.330752,60.3734422 C227.678355,55.9189269 227.529619,34.7106341 227.310036,31.3617208 C227.291807,31.0722273 227.096669,30.9635357 226.785525,30.9372181 C225.381026,30.8177363 221.389599,30.8456329 220.110221,31.058279 C219.85998,31.0995976 219.712486,31.2203954 219.704615,31.3756692 C219.391399,40.0078386 219.602695,59.9091999 219.668984,60.2860678 C219.734859,60.663462 220.045589,60.8461061 220.659176,60.8592649 L220.658348,60.8592649 L220.658348,60.8592649 Z M235.658348,60.8592649 C236.145158,60.8695287 239.838699,60.866897 241.475209,60.8655811 C242.026237,60.8724237 242.312522,60.6074055 242.330752,60.3734422 C242.678355,55.9189269 242.529619,34.7106341 242.310036,31.3617208 C242.291807,31.0722273 242.096669,30.9635357 241.785525,30.9372181 C240.381026,30.8177363 236.389599,30.8456329 235.110221,31.058279 C234.85998,31.0995976 234.712486,31.2203954 234.704615,31.3756692 C234.391399,40.0078386 234.602695,59.9091999 234.668984,60.2860678 C234.734859,60.663462 235.045589,60.8461061 235.659176,60.8592649 L235.658348,60.8592649 L235.658348,60.8592649 Z M369.335888,62.2995014 C369.343532,61.8126915 369.341572,58.1191503 369.340592,56.4826402 C369.345688,55.9316127 369.148324,55.645327 368.974087,55.6270976 C365.656726,55.2794945 349.862513,55.4282305 347.368514,55.6478129 C347.152923,55.6660424 347.071979,55.8611806 347.052379,56.1723247 C346.963399,57.5768233 346.984174,61.5682507 347.142536,62.8476287 C347.173306,63.0978698 347.263267,63.2453628 347.378902,63.2532346 C353.80744,63.5664503 368.628357,63.355154 368.909018,63.288865 C369.19007,63.2229903 369.326089,62.9122605 369.335888,62.2986728 L369.335888,62.2995014 L369.335888,62.2995014 Z M237.996191,49.2995014 C238.001322,48.8126915 238.000007,45.1191503 237.999349,43.4826402 C238.00277,42.9316127 237.870261,42.645327 237.753279,42.6270976 C235.526022,42.2794945 224.921875,42.4282305 223.247419,42.6478129 C223.102672,42.6660424 223.048326,42.8611806 223.035167,43.1723247 C222.975426,44.5768233 222.989375,48.5682507 223.095698,49.8476287 C223.116357,50.0978698 223.176756,50.2453628 223.254393,50.2532346 C227.570477,50.5664503 237.521158,50.355154 237.709592,50.288865 C237.898289,50.2229903 237.989611,49.9122605 237.996191,49.2986728 L237.996191,49.2995014 L237.996191,49.2995014 Z M215.335888,23.3160591 C215.343532,22.6157847 215.341572,17.3026394 215.340592,14.9485257 C215.345688,14.1558748 215.148324,13.7440539 214.974087,13.7178308 C211.656726,13.2178051 195.862513,13.4317613 193.368514,13.7476297 C193.152923,13.7738528 193.071979,14.0545585 193.052379,14.5021381 C192.963399,16.522504 192.984174,22.2641576 193.142536,24.1045382 C193.173306,24.464509 193.263267,24.6766772 193.378902,24.6880008 C199.80744,25.1385603 214.628357,24.8346114 214.909018,24.7392549 C215.19007,24.6444944 215.326089,24.1975108 215.335888,23.3148671 L215.335888,23.3160591 L215.335888,23.3160591 Z M148.177615,56.8292782 C148.68423,57.1664365 152.557266,59.6795234 154.273359,60.7929218 C154.848538,61.1718864 155.244888,61.2186141 155.34895,61.1002125 C157.330757,58.8462797 164.875407,46.8871731 165.861177,44.8652584 C165.947179,44.690988 165.782073,44.4973671 165.465445,44.270826 C164.036438,43.2478412 159.841943,40.5460796 158.423512,39.793974 C158.146173,39.646712 157.947689,39.6138385 157.883058,39.6952951 C154.420425,44.3084226 147.415896,55.5793968 147.348551,55.8352383 C147.280581,56.091092 147.540014,56.4047553 148.178484,56.8298423 L148.177615,56.8292782 L148.177615,56.8292782 Z M143.524683,32.9829785 C142.98749,33.2690142 138.950711,35.5096463 137.162194,36.502542 C136.556452,36.8304866 136.371947,37.2357693 136.465445,37.4514455 C138.245011,41.558104 148.689605,60.017159 150.553254,62.813115 C150.713533,63.0552644 150.979567,63.0320721 151.332492,62.866533 C152.925921,62.1198912 157.276123,59.6766392 158.571741,58.7153362 C158.825292,58.5275491 158.927978,58.3325144 158.861306,58.1919385 C155.018778,50.4522606 145.139402,33.1741858 144.884221,32.8847417 C144.629237,32.5945861 144.200976,32.623148 143.523777,32.9834806 L143.524683,32.9829785 L143.524683,32.9829785 Z M179.443276,36.6033461 C178.921421,36.2902011 174.921729,33.984017 173.149497,32.9623378 C172.556414,32.6120198 172.113991,32.6626036 171.977276,32.8538284 C169.373727,36.4942999 158.930592,54.9541802 157.49384,57.9916632 C157.368827,58.2537653 157.525725,58.4698565 157.849389,58.6871132 C159.310063,59.6683992 163.644858,62.1388821 165.136148,62.7543364 C165.427702,62.8749541 165.647766,62.8625234 165.733925,62.7329722 C170.389075,55.453054 180.111021,38.0859093 180.227695,37.7181015 C180.345081,37.3500969 180.100028,36.9977163 179.442379,36.6028282 L179.443276,36.6033461 L179.443276,36.6033461 Z M170.833964,56.385699 C171.311772,55.9907257 171.444926,55.6483584 171.360377,55.5156918 C169.75107,52.9894231 160.534604,42.2659829 158.910275,40.7144932 C158.770509,40.5798323 158.555762,40.6654354 158.27634,40.8769946 C157.014743,41.8316192 153.586885,44.7322111 152.575441,45.765973 C152.377489,45.9680326 152.302145,46.1363811 152.361899,46.2213713 C155.791071,50.8562857 164.501399,60.8670413 164.720024,61.0115703 C164.938518,61.1566678 165.284572,61.0252435 165.819001,60.5882563 C165.818287,60.5888555 169.424184,57.5697905 170.833964,56.385699 Z M130.99746,45.8963248 C131.000882,45.2878123 131.000004,40.6708858 130.999566,38.6252482 C131.001847,37.9364639 130.913507,37.5786068 130.835519,37.5558199 C129.350681,37.1213161 122.28125,37.3072361 121.164946,37.5817141 C121.068448,37.6045009 121.032217,37.8484238 121.023445,38.2373539 C120.983618,39.9929771 120.992916,44.9822614 121.063798,46.5814839 C121.077571,46.8942852 121.117837,47.0786515 121.169595,47.0884913 C124.046985,47.4800108 130.680772,47.2158905 130.806395,47.1330292 C130.932193,47.0506858 130.993074,46.6622736 130.99746,45.895289 L130.99746,45.8963248 L130.99746,45.8963248 Z M136.764933,30.8963248 C136.772039,30.2878123 136.770217,25.6708858 136.769306,23.6252482 C136.774043,22.9364639 136.59056,22.5786068 136.428578,22.5558199 C133.344538,22.1213161 118.661183,22.3072361 116.342596,22.5817141 C116.142168,22.6045009 116.066916,22.8484238 116.048695,23.2373539 C115.965973,24.9929771 115.985287,29.9822614 116.132511,31.5814839 C116.161117,31.8942852 116.24475,32.0786515 116.352253,32.0884913 C122.328651,32.4800108 136.107165,32.2158905 136.368085,32.1330292 C136.629371,32.0506858 136.755822,31.6622736 136.764933,30.895289 L136.764933,30.8963248 L136.764933,30.8963248 Z M116.938517,62.5047962 C117.54703,62.5184813 122.163956,62.5149723 124.209594,62.5132178 C124.898378,62.5223412 125.256235,62.1689837 125.279022,61.8570326 C125.713526,55.9176789 125.527606,27.6399552 125.253128,23.1747375 C125.230341,22.7887461 124.986418,22.643824 124.597488,22.6087338 C122.841865,22.4494247 117.852581,22.4866202 116.253358,22.7701484 C115.940557,22.8252399 115.75619,22.9863035 115.746351,23.1933352 C115.354831,34.7028944 115.618951,61.2380429 115.701813,61.7405334 C115.784156,62.2437257 116.172568,62.4872511 116.939553,62.5047962 L116.938517,62.5047962 L116.938517,62.5047962 Z M136.764933,60.8963248 C136.772039,60.2878123 136.770217,55.6708858 136.769306,53.6252482 C136.774043,52.9364639 136.59056,52.5786068 136.428578,52.5558199 C133.344538,52.1213161 118.661183,52.3072361 116.342596,52.5817141 C116.142168,52.6045009 116.066916,52.8484238 116.048695,53.2373539 C115.965973,54.9929771 115.985287,59.9822614 116.132511,61.5814839 C116.161117,61.8942852 116.24475,62.0786515 116.352253,62.0884913 C122.328651,62.4800108 136.107165,62.2158905 136.368085,62.1330292 C136.629371,62.0506858 136.755822,61.6622736 136.764933,60.895289 L136.764933,60.8963248 L136.764933,60.8963248 Z M87.9385171,62.5035264 C88.5470296,62.5189221 93.163956,62.5149745 95.2095937,62.5130007 C95.898378,62.5232646 96.2562351,62.1257374 96.2790219,61.7747923 C96.7135257,55.0930195 96.5276058,23.2805802 96.2531278,18.2572103 C96.2303409,17.8229701 95.9864181,17.6599326 95.597488,17.6204562 C93.8418648,17.4412334 88.8525805,17.4830784 87.253358,17.8020476 C86.9405567,17.8640255 86.7561904,18.0452221 86.7463506,18.2781328 C86.3548311,31.2263869 86.6189514,61.0784289 86.7018127,61.6437307 C86.784156,62.2098221 87.1725682,62.4837882 87.9395529,62.5035264 L87.9385171,62.5035264 L87.9385171,62.5035264 Z M101.938517,62.5022565 C102.54703,62.519363 107.163956,62.5149767 109.209594,62.5127836 C109.898378,62.5241879 110.256235,62.082491 110.279022,61.692552 C110.713526,54.26836 110.527606,18.9212053 110.253128,13.3396832 C110.230341,12.857194 109.986418,12.6760413 109.597488,12.6321786 C107.841865,12.4330422 102.852581,12.4795366 101.253358,12.8339468 C100.940557,12.9028112 100.75619,13.1041407 100.746351,13.3629304 C100.354831,27.7498794 100.618951,60.9188149 100.701813,61.546928 C100.784156,62.1759184 101.172568,62.4803252 101.939553,62.5022565 L101.938517,62.5022565 L101.938517,62.5022565 Z M102.63888,57.7125654 C103.21188,57.5072702 107.520894,55.8494358 109.430033,55.1147069 C110.076338,54.8763861 110.283794,54.4182539 110.193275,54.1188564 C108.470445,48.4182798 98.1630436,22.0853782 96.3066055,18.0151024 C96.1470052,17.6629146 95.8673481,17.6150322 95.4916754,17.7216528 C93.7955687,18.202084 89.1510002,20.0248086 87.7596048,20.862615 C87.4873226,21.0261453 87.3729219,21.2425822 87.4379292,21.4393892 C91.1970714,32.3247965 100.952996,57.0028394 101.21043,57.4422599 C101.467632,57.8825211 101.917518,57.9706772 102.639847,57.7121942 L102.63888,57.7125654 L102.63888,57.7125654 Z" id="Shape" fill="#F4F0F0"></path>
                    <g id="Hash-Logo">
                        <path d="M6.41068243,40.2127891 C3.70080405,40.2345034 1.40525,38.5418231 0.558844595,35.8999184 C0.527445066,35.8001432 0.498172024,35.6996466 0.471047297,35.5985034 C-0.451317568,32.2152109 1.33718243,28.6757823 4.54277027,27.5425034 L55.9584459,9.48707483 C56.5689379,9.30195335 57.2007203,9.20523818 57.836223,9.19961905 C60.6181149,9.17687075 62.9768041,10.9067755 63.8439257,13.604517 L63.9208716,13.8650884 C64.8826959,17.3890068 62.4929324,20.5344762 59.6296554,21.5426395 C59.6276824,21.5441905 59.1068176,21.7287619 8.49907432,39.8400272 C7.82640266,40.0803853 7.12133797,40.206234 6.41068243,40.2127891 L6.41068243,40.2127891 Z" id="Shape" fill="#2EA7BE"></path>
                        <path d="M14.9807838,66.7171429 C12.2496959,66.7378231 9.94625,65.0689252 9.10970946,62.4647619 C9.07795497,62.3656975 9.04835273,62.2658895 9.02092568,62.165415 C8.08573649,58.7417959 9.87226351,55.1651429 13.0887027,54.0303129 L64.5063514,35.8094422 C65.17075,35.5767891 65.8568514,35.4578776 66.5468986,35.4511565 C69.2853851,35.4294422 71.6914257,37.1831293 72.5402973,39.8167619 L72.6192162,40.0907755 C73.1159122,41.9111565 72.8224324,43.9569524 71.8349595,45.5715646 C71.0990405,46.7720544 68.7778378,47.8288163 68.7778378,47.8288163 L17.1648649,66.3268027 C16.4609424,66.5765862 15.7238938,66.7086608 14.9807838,66.7181769 L14.9807838,66.7171429 L14.9807838,66.7171429 Z" id="Shape" fill="#F1679D"></path>
                        <path d="M57.7824595,66.8324354 C55.0483916,66.8599557 52.6082297,65.0393902 51.7377635,62.322585 L34.5778311,8.89510204 L34.4920068,8.5952381 C33.5622432,5.18816327 35.35025,1.6342585 38.5548514,0.502013605 C39.1960676,0.276081633 39.8589865,0.158204082 40.5263446,0.152 C41.5177635,0.144244898 42.4771216,0.37844898 43.3807432,0.846340136 C44.8841223,1.62562702 46.0289779,3.00111048 46.5616689,4.66805442 L63.7201216,58.0908844 L63.7699392,58.2625306 C64.7337365,61.7998912 62.9496757,65.3558639 59.7450743,66.4881088 C59.1120773,66.7097727 58.4498191,66.8259611 57.7824595,66.8324354 L57.7824595,66.8324354 Z" id="Shape" fill="#5EDC2F"></path>
                        <path d="M32.2753716,75.8314558 C29.5397268,75.8587702 27.0984116,74.036626 26.2282095,71.3179864 L9.07271622,17.8925714 C8.53585678,16.2279364 8.65281086,14.4078242 9.39778279,12.8336829 C10.1427547,11.2595416 11.4545433,10.0606905 13.0438176,9.50155102 C13.6777532,9.27942364 14.3410038,9.16288745 15.0093919,9.15619048 C17.7439195,9.12789344 20.1847579,10.9486666 21.0550743,13.6660408 L38.2110608,67.0935238 C38.7481775,68.7589633 38.6308393,70.5799937 37.8849498,72.1546049 C37.1390603,73.7292161 35.8259571,74.9279214 34.2355203,75.4860952 C33.6028165,75.7083403 32.9406583,75.8247148 32.2733986,75.8309388 L32.2753716,75.8309388 L32.2753716,75.8314558 Z" id="Shape" fill="#3EB890"></path>
                        <polygon id="Shape" fill="#CC2027" points="49.3228446 54.8006531 61.2879392 50.5125986 57.3765203 38.3370884 45.3976149 42.5801633 49.3228446 54.8006531"></polygon>
                        <polygon id="Shape" fill="#361238" points="23.8552162 63.9278912 35.8193243 59.6403537 31.8783108 47.3717823 19.9023649 51.6164082 23.8552162 63.9278912"></polygon>
                        <polygon id="Shape" fill="#65863A" points="40.8045338 28.2802721 52.7706149 23.9979048 48.9050676 11.9645714 36.9167905 16.1745578"></polygon>
                        <polygon id="Shape" fill="#1A937D" points="15.3339459 37.395102 27.300027 33.1127347 23.3871284 20.9258503 11.3988514 25.1353197 15.3339459 37.395102"></polygon>
                    </g>
                </g>
            </g>
        </g>
    </g>
</svg>